<svg xmlns="http://www.w3.org/2000/svg" xml:space="preserve" viewBox="0 0 490.7 490.7"><path d="M245.3 0c-5.9 0-10.6 4.8-10.6 10.7V96a10.7 10.7 0 0 0 21.3 0V10.7c0-6-4.8-10.7-10.7-10.7"/><path d="M245.3 42.7c-111.7 0-202.6 90.9-202.6 202.6S133.6 448 245.3 448 448 357 448 245.3 357 42.7 245.3 42.7m0 384c-100 0-181.3-81.4-181.3-181.4S145.3 64 245.3 64s181.4 81.3 181.4 181.3-81.4 181.4-181.4 181.4"/><path d="M245.3 384c-5.9 0-10.6 4.8-10.6 10.7V480a10.7 10.7 0 0 0 21.3 0v-85.3c0-6-4.8-10.7-10.7-10.7M96 234.7H10.7a10.7 10.7 0 0 0 0 21.3H96a10.7 10.7 0 0 0 0-21.3M480 234.7h-85.3a10.7 10.7 0 0 0 0 21.3H480a10.7 10.7 0 0 0 0-21.3M245.3 192c-5.9 0-10.6 4.8-10.6 10.7V288a10.7 10.7 0 0 0 21.3 0v-85.3c0-6-4.8-10.7-10.7-10.7"/><path d="M288 234.7h-85.3a10.7 10.7 0 0 0 0 21.3H288a10.7 10.7 0 0 0 0-21.3"/></svg>