<svg xmlns="http://www.w3.org/2000/svg" width="512" height="512" viewBox="0 0 32 32">
  <path d="M4 18.79a1 1 0 0 0 .8-.4l.43-.56a10.92 10.92 0 0 0 19.88 4.23 1 1 0 0 0-1.66-1.1 8.91 8.91 0 0 1-16.27-3.64l.85.65a1 1 0 0 0 1.22-1.58l-2.37-1.83c-.5-.38-1.2-.6-1.65 0L3.2 17.17a1 1 0 0 0 .79 1.6M7.17 11.33a1 1 0 0 0 1.39-.28 8.92 8.92 0 0 1 16.26 3.63l-.85-.65a1 1 0 1 0-1.22 1.58l2.37 1.83c.5.38 1.2.6 1.65 0l2.02-2.62a1 1 0 1 0-1.58-1.22l-.44.57A10.92 10.92 0 0 0 6.9 9.94a1 1 0 0 0 .28 1.4"/>
</svg>
